<?xml version="1.0" encoding="utf-8"?>

<!DOCTYPE svg PUBLIC "-//W3C//DTD SVG 1.1//EN" "http://www.w3.org/Graphics/SVG/1.1/DTD/svg11.dtd">
<!-- Uploaded to: SVG Repo, www.svgrepo.com, Generator: SVG Repo Mixer Tools -->
<svg version="1.1" id="Layer_1" xmlns:sketch="http://www.bohemiancoding.com/sketch/ns"
	 xmlns="http://www.w3.org/2000/svg" xmlns:xlink="http://www.w3.org/1999/xlink"  width="800px" height="800px"
	 viewBox="0 0 63 32" enable-background="new 0 0 63 32" xml:space="preserve">
<title>Weight</title>
<desc>Created with Sketch.</desc>
<g id="Page-1" sketch:type="MSPage">
	<g id="Weight" transform="translate(1.000000, 1.000000)" sketch:type="MSLayerGroup">
		<path id="Shape_1_" sketch:type="MSShapeGroup" fill="none" stroke="#6B6C6E" stroke-width="2" stroke-linejoin="round" d="
			M10.1,26H6c-1.1,0-2-0.9-2-2V6c0-1.1,0.9-2,2-2h4.1v3V2c0-1.1,0.9-2,2-2h4c1.1,0,2,0.9,2,2v26c0,1.1-0.9,2-2,2h-4
			c-1.1,0-2-0.9-2-2v-5V26z"/>
		<path id="Shape_3_" sketch:type="MSShapeGroup" fill="none" stroke="#6B6C6E" stroke-width="2" stroke-linejoin="round" d="
			M52.1,23v5c0,1.1-0.9,2-2,2h-4c-1.1,0-2-0.9-2-2V2c0-1.1,0.9-2,2-2h4c1.1,0,2,0.9,2,2v5V4h3c1.1,0,2,0.9,2,2v18c0,1.1-0.9,2-2,2
			h-3V23z"/>
		
			<line id="Rectangle-path_1_" sketch:type="MSShapeGroup" fill="none" stroke="#6B6C6E" stroke-width="2" x1="44" y1="15" x2="18.1" y2="15">
		</line>
		<path id="Shape_2_" sketch:type="MSShapeGroup" fill="none" stroke="#6B6C6E" stroke-width="2" d="M4,15H0.1"/>
		<path id="Shape_6_" sketch:type="MSShapeGroup" fill="none" stroke="#6B6C6E" stroke-width="2" d="M61,15h-3.9"/>
	</g>
</g>
</svg>